<?xml version="1.0" encoding="UTF-8" standalone="no"?>
<svg
   width="808.22614"
   height="682.25415"
   viewBox="0 0 808.22612 682.25414"
   fill="none"
   version="1.1"
   id="svg5"
   xmlns="http://www.w3.org/2000/svg"
   xmlns:svg="http://www.w3.org/2000/svg">
  <defs
     id="defs5" />
  <mask
     id="mask0_656_14"
     maskUnits="userSpaceOnUse"
     x="21"
     y="0"
     width="384"
     height="440">
    <path
       d="M 405,0 H 21 v 440 h 384 z"
       fill="#ffffff"
       id="path1" />
  </mask>
  <mask
     id="mask1_656_14"
     maskUnits="userSpaceOnUse"
     x="1106"
     y="0"
     width="384"
     height="440">
    <path
       d="m 1490,0 h -384 v 440 h 384 z"
       fill="#ffffff"
       id="path3" />
  </mask>
  <g
     id="g1"
     transform="translate(22.000039,1.644597)">
    <path
       d="m 72.718113,395.69474 v -153 h 44.099997 v 36 h 0.9 v 117 z m 102.899997,0 v -97.2 c 0,-7.8 -2.1,-13.5 -6.3,-17.1 -4,-3.8 -9.7,-5.7 -17.1,-5.7 -6.4,0 -12.3,1.5 -17.7,4.5 -5.2,2.8 -9.3,6.9 -12.3,12.3 -3,5.2 -4.5,11.4 -4.5,18.6 l -3.9,-34.5 c 5,-11.2 12.2,-20.1 21.6,-26.7 9.6,-6.8 21.1,-10.2 34.5,-10.2 16,0 28.4,4.5 37.2,13.5 9,9 13.5,20.3 13.5,33.9 v 108.6 z m 102.9,0 v -97.2 c 0,-7.8 -2.1,-13.5 -6.3,-17.1 -4,-3.8 -9.7,-5.7 -17.1,-5.7 -6.4,0 -12.3,1.5 -17.7,4.5 -5.2,2.8 -9.3,6.9 -12.3,12.3 -3,5.2 -4.5,11.4 -4.5,18.6 l -6.9,-34.5 c 5,-11.2 12.4,-20.1 22.2,-26.7 10,-6.8 22,-10.2 36,-10.2 16.6,0 29.3,4.7 38.1,14.1 9,9.2 13.5,21.3 13.5,36.3 v 105.6 z m 54.08302,0 v -49.5 h 49.5 v 49.5 z m 145.47,-10.0495 c -13.38,0 -24.11,-3.117 -32.17,-9.35 -8.07,-6.233 -25.1308,-24.22115 -14.3,-25.575 l 2.2,-0.275 v 88.825 h -41.25 v -196.625 h 40.42 v 31.075 l -2.47,-0.55 c 2.01,-10.267 7.51,-18.333 16.5,-24.2 8.98,-6.05 20.07,-9.075 33.27,-9.075 12.65,0 23.56,3.025 32.73,9.075 9.35,5.867 16.5,14.208 21.45,25.025 5.13,10.817 7.7,23.558 7.7,38.225 0,14.85 -2.66,27.775 -7.98,38.775 -5.32,11 -12.74,19.525 -22.27,25.575 -9.54,6.05 -20.81,9.075 -33.83,9.075 z m -11.55,-33 c 9.72,0 17.6,-3.483 23.65,-10.45 6.05,-6.967 9.08,-16.867 9.08,-29.7 0,-12.833 -3.12,-22.642 -9.35,-29.425 -6.05,-6.783 -14.03,-10.175 -23.93,-10.175 -9.53,0 -17.42,3.483 -23.65,10.45 -6.05,6.783 -9.07,16.592 -9.07,29.425 0,12.833 3.02,22.733 9.07,29.7 6.23,6.783 14.3,10.175 24.2,10.175 z m 102.1,86.625 38.77,-85.8 7.15,-11.825 36.3,-99 h 44 l -84.97,196.625 z m 29.7,-59.125 -53.9,-137.5 h 44.55 l 44.27,125.4 z"
       fill="#000000"
       id="path5"
       style="fill:#ffffff;fill-opacity:1" />
    <text
       xml:space="preserve"
       style="font-style:normal;font-variant:normal;font-weight:normal;font-stretch:normal;font-size:521.645px;font-family:'Liberation Mono';-inkscape-font-specification:'Liberation Mono';writing-mode:lr-tb;direction:ltr;fill:#ffffff;fill-opacity:1;stroke-width:43.4706"
       x="-135.29961"
       y="376.81677"
       id="text6"
       transform="scale(0.71269688,1.4031211)"><tspan
         id="tspan6"
         x="-135.29961"
         y="376.81677"
         style="font-style:normal;font-variant:normal;font-weight:normal;font-stretch:normal;font-family:'Liberation Mono';-inkscape-font-specification:'Liberation Mono';fill:#ffffff;fill-opacity:1;stroke-width:43.4706">[</tspan></text>
    <text
       xml:space="preserve"
       style="font-style:normal;font-variant:normal;font-weight:normal;font-stretch:normal;font-size:521.017px;font-family:'Liberation Mono';-inkscape-font-specification:'Liberation Mono';writing-mode:lr-tb;direction:ltr;fill:#ffffff;fill-opacity:1;stroke-width:43.4182"
       x="-1206.145"
       y="376.94656"
       id="text6-9"
       transform="scale(-0.71355748,1.4014288)"><tspan
         id="tspan6-7"
         x="-1206.145"
         y="376.94656"
         style="font-style:normal;font-variant:normal;font-weight:normal;font-stretch:normal;font-family:'Liberation Mono';-inkscape-font-specification:'Liberation Mono';fill:#ffffff;fill-opacity:1;stroke-width:43.4182">[</tspan></text>
  </g>
</svg>
