<?xml version="1.0" encoding="UTF-8" standalone="no"?>
<svg
   width="1508.2142"
   height="440.62527"
   viewBox="0 0 1508.2142 440.62527"
   fill="none"
   version="1.1"
   id="svg5"
   xmlns="http://www.w3.org/2000/svg"
   xmlns:svg="http://www.w3.org/2000/svg">
  <defs
     id="defs5" />
  <mask
     id="mask0_656_14"
     maskUnits="userSpaceOnUse"
     x="21"
     y="0"
     width="384"
     height="440">
    <path
       d="M 405,0 H 21 v 440 h 384 z"
       fill="#ffffff"
       id="path1" />
  </mask>
  <mask
     id="mask1_656_14"
     maskUnits="userSpaceOnUse"
     x="1106"
     y="0"
     width="384"
     height="440">
    <path
       d="m 1490,0 h -384 v 440 h 384 z"
       fill="#ffffff"
       id="path3" />
  </mask>
  <path
     d="m 104.71808,296.87446 v -153 h 44.1 v 36 h 0.9 v 117 z m 102.9,0 v -97.2 c 0,-7.8 -2.1,-13.5 -6.3,-17.1 -4,-3.8 -9.7,-5.7 -17.1,-5.7 -6.4,0 -12.3,1.5 -17.7,4.5 -5.2,2.8 -9.3,6.9 -12.3,12.3 -3,5.2 -4.5,11.4 -4.5,18.6 l -3.9,-34.5 c 5,-11.2 12.2,-20.1 21.6,-26.7 9.6,-6.8 21.1,-10.2 34.5,-10.2 16,0 28.4,4.5 37.2,13.5 9,9 13.5,20.3 13.5,33.9 v 108.6 z m 102.9,0 v -97.2 c 0,-7.8 -2.1,-13.5 -6.3,-17.1 -4,-3.8 -9.7,-5.7 -17.1,-5.7 -6.4,0 -12.3,1.5 -17.7,4.5 -5.2,2.8 -9.3,6.9 -12.3,12.3 -3,5.2 -4.5,11.4 -4.5,18.6 l -6.9,-34.5 c 5,-11.2 12.4,-20.1 22.2,-26.7 10,-6.8 22,-10.2 36,-10.2 16.6,0 29.3,4.7 38.1,14.1 9,9.2 13.5,21.3 13.5,36.3 v 105.6 z m 171.75,0 c -1.2,-4.4 -2.1,-9.1 -2.7,-14.1 -0.4,-5 -0.6,-10.8 -0.6,-17.4 h -1.2 v -72.3 c 0,-6.2 -2.1,-11 -6.3,-14.4 -4,-3.6 -10,-5.4 -18,-5.4 -7.6,0 -13.7,1.3 -18.3,3.9 -4.4,2.6 -7.3,6.4 -8.7,11.4 h -42.9 c 2,-13.8 9.1,-25.2 21.3,-34.2 12.2,-9 28.9,-13.5 50.1,-13.5 22,0 38.8,4.9 50.4,14.7 11.6,9.8 17.4,23.9 17.4,42.3 v 67.5 c 0,5 0.3,10.1 0.9,15.3 0.8,5 2,10.4 3.6,16.2 z m -53.4,3 c -15.2,0 -27.3,-3.8 -36.3,-11.4 -9,-7.8 -13.5,-18.1 -13.5,-30.9 0,-14.2 5.3,-25.6 15.9,-34.2 10.8,-8.8 25.8,-14.5 45,-17.1 l 44.7,-6.3 v 26.1 l -37.2,5.7 c -8,1.2 -13.9,3.4 -17.7,6.6 -3.8,3.2 -5.7,7.6 -5.7,13.2 0,5 1.8,8.8 5.4,11.4 3.6,2.6 8.4,3.9 14.4,3.9 9.4,0 17.4,-2.5 24,-7.5 6.6,-5.2 9.9,-11.2 9.9,-18 l 4.2,24 c -4.4,11.4 -11.1,20 -20.1,25.8 -9,5.8 -20,8.7 -33,8.7 z m 190.539,0.3 c -19.6,0 -34.2,-4.7 -43.8,-14.1 -9.4,-9.6 -14.1,-24.1 -14.1,-43.5 v -132.9 l 45,-16.800002 V 244.07446 c 0,6.8 1.9,11.9 5.7,15.3 3.8,3.4 9.7,5.1 17.7,5.1 3,0 5.8,-0.3 8.4,-0.9 2.6,-0.6 5.2,-1.3 7.8,-2.1 v 34.2 c -2.6,1.4 -6.3,2.5 -11.1,3.3 -4.6,0.8 -9.8,1.2 -15.6,1.2 z m -86.4,-122.1 v -34.2 h 113.1 v 34.2 z m 140.07,118.8 v -153 h 44.1 v 36 h 0.9 v 117 z m 45,-79.8 -3.9,-36.3 c 3.6,-13 9.5,-22.9 17.7,-29.7 8.2,-6.8 18.4,-10.2 30.6,-10.2 3.8,0 6.6,0.4 8.4,1.2 v 42 c -1,-0.4 -2.4,-0.6 -4.2,-0.6 -1.8,-0.2 -4,-0.3 -6.6,-0.3 -14.4,0 -25,2.6 -31.8,7.8 -6.8,5 -10.2,13.7 -10.2,26.1 z m 72.187,79.8 v -153 h 45 v 153 z m -1.5,-173.4 V 74.874458 h 48 v 48.600002 z m 180.35,173.4 -45.3,-67.2 -65.1,-85.8 h 50.4 l 40.5,60.3 69.89702,92.7 z m -41.7,-95.1 40.5,-57.9 h 49.19702 l -68.39702,89.4 z m 17.4,33.9 -43.5,61.2 h -48.9 l 71.1,-92.7 z m 89.78702,61.2 v -49.5 h 49.5 v 49.5 z m 169.47,-10.0495 c -13.38,0 -24.11,-3.117 -32.17,-9.35 -8.07,-6.233 -12.84,-14.758 -14.3,-25.575 l 2.2,-0.275 v 88.825 h -41.25 v -196.625 h 40.42 v 31.075 l -2.47,-0.55 c 2.01,-10.267 7.51,-18.333 16.5,-24.2 8.98,-6.05 20.07,-9.075 33.27,-9.075 12.65,0 23.56,3.025 32.73,9.075 9.35,5.867 16.5,14.208 21.45,25.025 5.13,10.817 7.7,23.558 7.7,38.225 0,14.85 -2.66,27.775 -7.98,38.775 -5.32,11 -12.74,19.525 -22.27,25.575 -9.54,6.05 -20.81,9.075 -33.83,9.075 z m -11.55,-33 c 9.72,0 17.6,-3.483 23.65,-10.45 6.05,-6.967 9.08,-16.867 9.08,-29.7 0,-12.833 -3.12,-22.642 -9.35,-29.425 -6.05,-6.783 -14.03,-10.175 -23.93,-10.175 -9.53,0 -17.42,3.483 -23.65,10.45 -6.05,6.783 -9.07,16.592 -9.07,29.425 0,12.833 3.02,22.733 9.07,29.7 6.23,6.783 14.3,10.175 24.2,10.175 z m 102.1,86.625 38.77,-85.8 7.15,-11.825 36.3,-99 h 44 l -84.97,196.625 z m 29.7,-59.125 -53.9,-137.5 h 44.55 l 44.27,125.4 z"
     fill="#000000"
     id="path5"
     style="fill:#ffffff;fill-opacity:1" />
  <text
     xml:space="preserve"
     style="font-family:KaTeX_Caligraphic;-inkscape-font-specification:KaTeX_Caligraphic;writing-mode:lr-tb;direction:ltr;fill:#ffffff;fill-opacity:1"
     x="377.30466"
     y="376.43259"
     id="text5"><tspan
       id="tspan5"
       x="377.30466"
       y="376.43259">[</tspan></text>
  <text
     xml:space="preserve"
     style="font-size:369.288px;font-family:KaTeX_Caligraphic;-inkscape-font-specification:KaTeX_Caligraphic;writing-mode:lr-tb;direction:ltr;fill:#ffffff;fill-opacity:1;stroke-width:30.7741"
     x="-74.596054"
     y="314.71106"
     id="text6"
     transform="scale(1.0067351,0.99330995)"><tspan
       id="tspan6"
       x="-74.596054"
       y="314.71106"
       style="font-style:normal;font-variant:normal;font-weight:normal;font-stretch:normal;font-family:KaTeX_Size1;-inkscape-font-specification:KaTeX_Size1;fill:#ffffff;fill-opacity:1;stroke-width:30.7741">[</tspan></text>
  <text
     xml:space="preserve"
     style="font-size:369.288px;font-family:KaTeX_Caligraphic;-inkscape-font-specification:KaTeX_Caligraphic;writing-mode:lr-tb;direction:ltr;fill:#ffffff;fill-opacity:1;stroke-width:30.7741"
     x="-1572.7202"
     y="313.89493"
     id="text6-9"
     transform="scale(-1.0067351,0.99330995)"><tspan
       id="tspan6-7"
       x="-1572.7202"
       y="313.89493"
       style="font-style:normal;font-variant:normal;font-weight:normal;font-stretch:normal;font-family:KaTeX_Size1;-inkscape-font-specification:KaTeX_Size1;fill:#ffffff;fill-opacity:1;stroke-width:30.7741">[</tspan></text>
</svg>
